<?xml version="1.0" encoding="utf-8"?>
<!-- Generator: Adobe Illustrator 19.0.0, SVG Export Plug-In . SVG Version: 6.00 Build 0)  -->
<svg version="1.1" id="Layer_1" xmlns="http://www.w3.org/2000/svg" xmlns:xlink="http://www.w3.org/1999/xlink" x="0px" y="0px"
	 viewBox="-11 32.7 213 165.5" style="enable-background:new -11 32.7 213 165.5;" xml:space="preserve">
<style type="text/css">
	.st0{fill:#FFFFFF;}
</style>
<path class="st0" d="M139.9,128.7c0,2.3-1.9,4.3-4.3,4.3c-2.3,0-4.3-1.9-4.3-4.3V69.9l-31.5,33.4V161l15.5-16.4
	c0.8-0.8,1.9-1.3,3-1.3c1.2,0,2.2,0.4,3.1,1.2c0.8,0.8,1.3,1.9,1.3,3c0,1.1-0.4,2.2-1.2,3.1l-22.9,24.1l0,0
	c-0.1,0.1-0.3,0.3-0.4,0.4c-0.1,0-0.1,0.1-0.3,0.1c-0.3,0.1-0.4,0.3-0.7,0.4c0,0,0,0-0.1,0c-0.5,0.3-1.1,0.4-1.6,0.4
	c-0.5,0-1.2-0.1-1.6-0.4c0,0-0.1,0-0.1-0.1c-0.3-0.1-0.4-0.3-0.5-0.3c-0.1,0-0.1-0.1-0.3-0.1c-0.1-0.1-0.3-0.3-0.4-0.4l0,0
	l-22.9-24.1c-0.8-0.8-1.2-1.9-1.2-3.1c0-1.1,0.5-2.2,1.3-3c0.8-0.8,1.9-1.2,3-1.2c1.2,0,2.2,0.5,3,1.3L91.2,161v-57.7L59.7,69.9
	v58.8c0,2.3-1.9,4.3-4.3,4.3c-2.3,0-4.3-1.9-4.3-4.3V59.3c0-1.7,1.1-3.2,2.7-3.9c1.6-0.7,3.5-0.3,4.7,1.1l37,39l37-39
	c1.2-1.2,3-1.6,4.7-1.1c1.6,0.7,2.7,2.2,2.7,3.9C139.9,59.3,139.9,128.7,139.9,128.7z"/>
</svg>
