<?xml version="1.0" encoding="utf-8"?>
<!-- Generator: Adobe Illustrator 19.0.0, SVG Export Plug-In . SVG Version: 6.00 Build 0)  -->
<svg version="1.1" id="Layer_1" xmlns="http://www.w3.org/2000/svg" xmlns:xlink="http://www.w3.org/1999/xlink" x="0px" y="0px"
	 viewBox="-1 3 25.3 25" style="enable-background:new -1 3 25.3 25;" xml:space="preserve">
<style type="text/css">
	.st0{fill:#FF6600;}
</style>
<g>
	<path class="st0" d="M11.7,3.5C5.1,3.5-0.2,8.8-0.2,15.4s5.3,11.9,11.9,11.9S23.6,22,23.6,15.4S18.2,3.5,11.7,3.5z M11.7,25.2
		c-5.4,0-9.9-4.4-9.9-9.9s4.4-9.9,9.9-9.9s9.9,4.4,9.9,9.9S17.1,25.2,11.7,25.2z"/>
	<path class="st0" d="M17,14.4h-4.4V10c0-0.6-0.4-1-1-1s-1,0.4-1,1v4.4H6.3c-0.6,0-1,0.4-1,1s0.4,1,1,1h4.4v4.4c0,0.6,0.4,1,1,1
		s1-0.4,1-1v-4.4H17c0.6,0,1-0.4,1-1S17.6,14.4,17,14.4z"/>
</g>
</svg>
